<svg width="1001" height="501" viewBox="0 0 1001 501" fill="none" xmlns="http://www.w3.org/2000/svg" xmlns:xlink="http://www.w3.org/1999/xlink" role="img" aria-label="Map of the world showing points for Freiburg, Nuremberg, New Delhi, Milan, New York, Portland, Boston, Stockholm, Madrid, Jakarta, Paris, Strasbourg, Kajaani, Ghent, Oslo, Tallinn, Bristol, Birmingham, London, Curitiba, Berlin, Pontevedra and Medellín."> <g id="map">
<path id="Vector" d="M550.376 406.154L547.399 409.273H542.381V404.68L546.273 402.16H550.376V406.154ZM558.988 392.698V397.226L555.16 394.919V391.395H558.988V378.643H549.207L525.945 394.3L520.226 387.699V400.665H506.086L514.293 423.242H541.233L561.964 399.148L562.9 392.633L558.988 392.698V392.698ZM194.119 137.661L199.477 133.989H205.941L200.604 137.661H194.119ZM242.959 118.166L236.113 124.129H220.251L215.339 127.509H219.124L213.851 131.123H210.087L215.339 127.509H204.984L200.498 131.012L195.926 131.471L196.84 123.557H193.311L189.186 126.31L181.531 137.663H177.024L185.699 123.557L195.926 121.359L195.352 119.43L188.612 119.2L185.422 117.249L181.425 119.2H176.747L178.661 115.045L168.984 110.598H86.4634L59.2896 139.391V161.52L69.2108 171.488L103.912 175.97L108.541 183.023L118.3 182.679L126.354 198.571L141.362 179.644L177.041 179.757L179.401 197.674L185.057 197.823L185.206 175.523L242.955 125.926L246.889 125.242L249.121 118.179H242.955L242.959 118.166ZM277.107 115.101H297.264L293.076 108.398L289.291 107.49V102.682L277.107 115.101ZM127.673 223.523L119.897 206.692L126.352 198.554L118.3 182.658L108.541 183.001L103.912 175.951L69.2108 171.469L69.2767 171.538L70.7545 187.233L81.4284 207.525L85.8021 204.128L77.3842 186.099V175.951H82.3491L82.5426 185.389L98.4896 223.026L124.494 233.919L130.983 232.189L136.695 238.042L139.539 232.958H145.531L144.677 226.358H149.812L156.49 221.359L156.773 214.076L149.469 213.948L143.662 223.517L127.673 223.523ZM415.57 60.3553L425.224 55.6369V54.3083L420.44 49.434L413.742 51.6683L405.704 51.4974L404.003 53.8256L399.432 53.7188V58.0335L415.57 60.3553ZM501.493 162.776L501.514 158.196L496.348 158.06L496.305 161.434L501.493 162.776ZM305.706 16.3327V21.16L329.69 21.5039L335.835 32.156V41.7893L324.332 48.3532L324.672 61.4254L331.901 68.7668H340.449L353.504 54.9064L371.939 49.4447L378.85 44.1282L392.798 43.2632L402.558 40.3689L420.95 10.9991L432.283 8.67087L436.28 4.63386L403.599 1.33163L375.363 4.63386H341.172L321.461 11.5139L305.706 16.3327ZM861.939 202.27L859.154 199.344L854.582 205.88L859.154 210.173L861.939 202.27ZM818.053 121.252L818.967 116.092L809.378 114.543L805.721 108.522H787.456L750.118 99.2345L746.015 108.522L730.833 103.878L719.5 112.55L756.412 134.209L799.108 134.668L804.253 124.151L818.053 121.252ZM826.154 219.465L820.668 220.682V223.929L822.901 226.642L826.154 222.562V219.465ZM805.721 108.522L809.378 114.543L818.967 116.092L818.053 121.252L804.275 124.151L799.108 134.668L756.412 134.209L719.5 112.55L703.532 124.779L706.19 137.191L690.2 143.157L694.772 154.392L711.782 162.188L712.462 175.951L756.986 191.419L765.194 183.862L782.672 191.419L780.269 197.955L789.518 213.441L805.721 205.196L816.309 214.296L820.796 211.733L820.966 216.111L847.502 206.585L856.177 187.079L840.698 161.49L848.65 152.777H839.507L836.573 154.685L830.832 145.212L838.146 138.789L843.164 148.409L850.202 143.546L863.704 134.203V116.083L841.336 110.35L824.9 94.1786H808.931L812.567 107.138L805.721 108.522ZM897.98 135.777L904.231 135.692L906.889 131.133L893.004 125.285L893.281 136.809L896.023 138.443L897.98 135.777ZM880.714 162.413L879.694 165.956L893.451 163.916L894.514 169.252L897.639 167.919L897.98 163.72L907.208 161.338L906.719 149.221L902.53 141.875L898.362 140.662L900.744 151.671L892.217 159.439L880.714 162.413ZM878.29 169.252L883.266 168.622L884.882 171.031L883.096 176.707L878.29 169.252ZM891.558 166.903L889.156 171.288L885.987 167.676L891.558 166.903ZM876.504 241.747L868.956 240.957L866.213 237.518L868.956 231.196L866.234 225.129L861.259 225.023L860.047 235.703L867.085 244.225L875.335 245.272L876.504 241.747ZM852.733 260.694L856.071 261.356L862.003 256.4L861.875 252.342L852.733 260.694ZM878.779 268.362V273.125L883.734 271.63L882.054 268.554L886.051 267.529L882.649 256.87L880.14 263.449H871.933L878.779 268.362ZM864.172 244.588L867.702 248.07L866.553 250.206L863.704 247.408L864.172 244.588ZM867.702 253.111L870.211 254.82L872.953 250.655L869.296 250.206L867.702 253.111ZM877.057 248.753L880.502 253.218H884.265L880.672 247.408L877.057 248.753ZM877.057 252.513L878.992 255.909L877.44 257.981L874.718 253.858L877.057 252.513ZM872.953 255.952L874.718 258.622L872.953 260.758L870.933 258.28L872.953 255.952ZM879.651 325.927L881.969 329.131L888.475 328.34V325.927H879.651ZM827.366 288.248L827.685 297.475L832.916 306.66H849.543L857.772 296.108V276.97L851.839 277.589L847.034 286.71L830.938 290.32L827.472 288.205L827.366 288.248ZM815.544 312.342V305.293L788.136 276.735L778.759 273.125L810.505 316.55L815.544 312.342ZM847.566 324.901L848.076 327.294L813.822 321.462L818.967 317.319L827.515 320.587L835.233 318.878L847.566 324.901ZM869.466 324.901H864.172L865.192 328.34H870.253L872.379 326.61L869.466 324.901ZM860.217 330.476L861.769 332.377H865.448L864.172 329.622L860.217 330.476ZM879.651 325.927L874.357 331.865L878.375 332.377L881.969 329.131L879.651 325.927ZM862.024 315.439L865.958 314.221L864.767 307.258L867.085 304.674L869.041 309.843L873.761 311.487V307.771L871.104 301.875L876.143 297.625L868.105 297.967L866.447 295.66L869.636 292.135L875.547 294.186L878.46 293.93L882.819 288.76L878.992 288.675L876.504 290.32L868.276 288.312L862.832 293.246L863.215 301.064L860.047 305.293L862.024 315.439ZM891.558 304.353L890.644 307.579L899.553 306.66V304.353H891.558ZM893.621 283.527L890.644 286.475L889.517 293.823L893.621 294.827L892.706 288.312L895.088 285.322L893.621 283.527ZM913.799 303.072L912.608 296.706L902.849 298.095L913.799 303.072ZM913.14 308.369L926.748 314.072L929.193 321.057L924.664 323.833L936.316 327.892V304.844L926.854 299.889L918.03 307.087L908.696 303.392L907.654 308.561L913.14 308.369ZM872.613 156.329L863.428 148.779L859.367 152.547L864.852 164.474L871.486 164.015L872.613 156.329ZM863.428 148.779L859.367 145.438L864.618 144.75L863.704 134.201L850.202 143.543L854.157 151.083L859.367 152.547L863.428 148.779ZM851.669 270.487L844.355 280.377L827.472 288.216L830.938 290.33L847.034 286.721L851.839 277.6L857.772 276.981V269.974L851.669 270.487ZM795.706 270.487L798.64 280.056L810.717 290.395L811.653 286.721L800.256 269.804L795.706 270.487ZM940.548 329.398L948.649 321.922L959.153 332.217L968.742 334.182L956.877 322.263L957.452 315.962L936.316 304.855V327.902L940.548 329.398ZM962.788 317.052L967.062 319.615L974.441 315.45V311.135L962.788 317.052ZM968.742 304.941L977.353 311.135L980.798 309.96L972.059 304.727L968.742 304.941ZM789.518 213.435L780.269 197.949L782.651 191.413L777.292 189.106L770.105 194.297L766.725 217.771L772.062 222.257L774.103 232.979L777.866 234.111L780.567 230.715L785.585 236.397L788.37 246.778L787.711 257.5L792.027 248.999L784.266 220.89L789.518 217.066V213.435ZM805.04 226.635L811.249 235.115L805.444 240.968H818.457V237.636L805.784 224.094L802.978 215.379L794.175 211.064L789.518 213.435V217.066L794.069 219.736V226.635H805.04ZM794.069 226.635V219.736L789.518 217.066L784.266 220.89L792.027 248.999L787.711 257.5L787.456 261.73L794.983 268.138L795.706 270.487L800.256 269.804L792.942 258.974L794.643 242.228L802.871 250.409V243.552L811.249 235.115L805.04 226.635H794.069ZM802.871 243.552V250.409L806.975 254.51L811.589 253.869L818.457 248.7V240.968H805.444L802.871 243.552ZM805.784 224.094L818.457 237.636V248.7L811.589 253.869L811.759 261.26L824.9 252.545L824.453 239.579L810.739 225.033L811.419 217.066L816.309 214.289L805.721 205.19L794.175 211.064L802.978 215.379L805.784 224.094ZM750.99 195.899L748.077 197.266L752.202 210.359L754.86 207.775L766.725 217.771L767.49 212.431L761.26 206.578L760.24 199.572L755.264 201.623L750.99 195.899ZM755.264 195.001L748.077 193.207L749.077 188.679L747.014 187.961L742.613 195.001L718.437 185.804L718.501 178.046L712.462 175.944L711.782 162.182L706.509 159.768H701.639L694.41 164.929L694.219 169.323L698.599 171.815L700.683 180.404L691.178 189.192H685.097V195.685L689.647 197.415V203.011L681.44 205.211L682.141 206.044L688.924 208.202L685.756 211.47L688.754 215.379L694.134 216.02L695.09 211.534L697.217 211.555L714.503 261.495L725.475 254.724L727.176 234.645L752.202 210.359L748.077 197.266L750.99 195.899L755.264 201.623L760.24 199.572L761.26 206.578L767.49 212.431L770.105 194.297L777.292 189.106L765.194 183.856L756.986 191.413L755.264 195.001ZM718.501 178.046L718.437 185.804L742.613 195.001L747.014 187.961L718.501 178.046ZM749.077 188.679L748.077 193.207L755.264 195.001L756.986 191.413L749.077 188.679ZM612.123 130.644L617.248 134.92L623.775 133.109L629.559 137.958L628.559 125.368L637.468 123.305L649.205 131.39L659.029 129.497L666.216 139.015L673.147 138.708L679.93 133.109L695.941 132.411L706.19 137.18L703.532 124.768L719.5 112.544L710.293 107.136L656.626 88.1231L635.47 92.9141V102.522H597.962V114.936L602.98 121.242L613.718 116.884L620.118 121.242L612.357 125.024L612.123 130.644ZM653.203 160.292L649.609 154.445L635.576 149.973L627.284 152.749L627.135 156.46L616.567 156.453L610.741 146.126L596.814 147.508V151.637L613.718 180.451L618.736 180.934L630.388 193.145L651.842 199.575H657.796L662.112 192.12L657.328 186.094L650.481 166.142L653.203 160.292ZM629.559 137.971L623.775 133.122L617.248 134.933L627.666 143.601L627.284 152.756L635.576 149.979L649.631 154.452L653.224 160.298L666.577 153.418L644.57 135.726H635.236L629.559 137.971ZM685.097 189.192H691.178L700.683 180.404L698.599 171.815L694.219 169.323L694.41 164.929L701.639 159.768H706.509L696.366 155.114L685.565 156.68L682.141 171.585L669.66 183.177L656.265 183.042L657.328 186.092L662.112 192.118L657.796 199.572H676.507L681.44 205.211L689.647 203.011V197.415L685.097 195.685V189.192ZM649.205 131.392L637.468 123.307L628.559 125.37L629.559 137.96L635.236 135.715H644.57L666.577 153.407L673.785 155.345L670.511 145.669L680.738 142.721L681.312 138.347L666.216 139.017L659.029 129.499L649.205 131.392ZM653.203 160.292L650.481 166.142L656.265 183.044L669.66 183.179L682.141 171.587L685.565 156.682L683.353 150.402L673.785 155.349L666.577 153.412L653.203 160.292ZM682.439 147.508L673.849 144.708L670.511 145.673L673.785 155.349L683.353 150.402L685.565 156.682L696.366 155.116L694.772 154.388L691.625 146.632L682.439 147.508ZM679.93 133.116L673.147 138.714L681.312 138.351L680.738 142.725L673.849 144.708L682.439 147.508L691.625 146.632L690.2 143.153L706.19 137.187L695.941 132.417L679.93 133.116ZM597.962 141.172L604.086 146.786L610.741 146.126L606.106 137.921L601.088 136.674L597.962 141.172ZM584.801 138.851L593.88 141.172H597.962L601.088 136.674L589.5 131.396L584.801 132.417V138.851ZM596.814 147.508L604.086 146.786L597.962 141.172H593.88L596.814 147.508ZM527.604 77.5543L525.201 78.1246L525.818 78.5881L525.137 81.6853L518.397 78.5881L518.418 82.608L527.604 84.9619L534.217 88.0014L536.768 85.8099L535.854 79.2823L532.494 80.3075L527.604 77.5543ZM518.44 87.2025L523.564 88.9177L524.967 91.8312L526.073 94.939L534.217 88.0014L527.604 84.9619L518.418 82.608L518.44 87.2025ZM544.465 85.8099H536.768L526.073 94.939L527.774 99.6489L543.104 102.105L552.673 100.008L546.974 97.6795L550.397 95.4859L544.465 85.8099ZM523.117 73.874L522.309 75.9373L525.201 78.1246L527.604 77.5543L532.494 80.3075L535.854 79.2823L534.812 71.8469L532.898 73.6518L523.117 73.874ZM543.104 102.112L527.774 99.6553L528.731 102.33L523.245 109.201V113.089H543.976L545.975 116.895L542.381 122.553L545.528 123.875L546.379 121.252H558.669L555.947 124.089L559.732 126.24L564.835 125.838L559.987 119.618L572.745 116.895L575.998 109.556L552.673 100.014L543.104 102.112ZM513.911 41.9623L492.435 57.7857V71.8597L489.48 76.5098L497.56 85.8547L510.742 74.1281L504.576 66.4386L518.461 51.1941H521.204L517.419 41.9623H513.911ZM476.042 77.5692L488.608 75.5058L489.48 76.5119L492.435 71.8619V57.7879L513.932 41.9645H525.818V38.0236L513.634 38.6473L471.853 67.6967L476.042 77.5692ZM525.818 41.9623H517.44L521.204 51.1941H523.415L516.739 66.3873L524.542 70.3432H536.428L543.104 62.6024L532.026 37.6968L525.818 38.0129V41.9623ZM886.009 111.168H890.112L875.632 96.2612L871.529 96.1437L883.16 110.594L888.858 121.259H893.089L886.009 111.168ZM523.479 88.9327L518.355 87.2175L518.376 90.6415L524.882 91.8461L523.479 88.9327ZM829.875 37.3913L825.941 32.0236L801.617 28.0293L794.77 34.2215H775.081L766.874 28.0293H722.349L719.606 18.1696H678.506L642.274 34.4501L650.205 44.3141L643.358 51.4226L637.171 31.1073L626.242 30.2379L631.494 42.2486L589.245 43.3956L549.76 59.6782L544.55 49.7074L559.562 50.2756L566.876 46.606L538.108 37.3913L531.984 37.7053L543.062 62.6109L536.385 70.3517L534.769 71.8683L535.811 79.3036L536.726 85.8312H544.423L550.355 95.5072L546.932 97.7009L552.63 100.029L575.955 109.571L572.702 116.91L574.233 120.577L570.47 121.609L571.129 127.641L584.758 132.436L589.457 131.415L601.045 136.693L606.063 137.941L602.938 132.436V121.267L597.92 114.962V102.547H635.427V92.9398L656.584 88.1487L710.251 107.161L719.458 112.565L730.791 103.893L745.972 108.537L750.076 99.2495L787.413 108.537H805.678L812.525 107.161L808.867 94.2021H824.857L841.293 110.374L863.662 116.107V134.226L873.464 132.496L878.737 124.593V109.914L863.662 92.7133L849.054 92.4848L851.563 74.3674L881.692 74.5959L884.967 64.3133L897.682 69.147L897.725 64.4073L900.871 64.7341L906.357 70.0078L901.063 73.6283L900.425 84.4556L921.879 104.869V85.1456L909.78 73.4468L938.443 64.3304L938.804 61.3913L924.388 57.4504L930.001 53.0567L942.887 55.7309L951.626 55.9039L944.609 48.3404L899.617 39.3885L829.875 37.3913ZM508.595 114.159L503.301 118.518L510.998 121.391L519.205 119.969L525.711 113.095H523.139V111.469L508.595 114.159ZM504.661 110.421L508.595 114.159L523.139 111.469V109.207L509.956 107.599L509.403 107.381L504.661 110.421ZM476.892 121.051L481.613 121.391L485.886 120.4L484.355 115.754H480.337L477.721 116.965L476.892 121.051ZM494.966 110.421H504.661L509.403 107.381L500.132 103.712L491.84 106.292L494.966 110.421ZM429.816 155.191L431.73 155.336L433.941 136.676L426.755 135.469L426.393 149.114L429.816 155.191ZM542.275 122.553L545.869 116.895L543.87 113.089H537.725L542.275 122.553ZM524.861 91.8376L518.355 90.6329L511.508 90.8593L509.956 89.4303L500.132 91.8376L499.261 91.8269L500.132 103.705L509.424 107.375L509.956 107.593L523.139 109.201L528.624 102.33L527.668 99.6553L525.967 94.9455L524.861 91.8376ZM525.711 113.089L519.205 119.962L525.031 129.681L539.575 128.017L543.721 129.164L545.422 123.875L542.275 122.553L537.725 113.089H525.711ZM499.239 91.8269L486.631 91.6817L486.056 89.4303H481.634L482.527 91.5984L475.893 95.5905L475.297 107.093L479.316 109.201L477.721 116.959L480.337 115.748H489.692L490.5 115.511L497.283 113.511L494.966 110.414L491.84 106.285L500.132 103.705L499.239 91.8269ZM481.634 89.4303H486.056L485.823 88.4777L487.268 80.314L483.292 80.2584L480.464 86.6621L481.634 89.4303ZM493.435 86.5724L490.947 84.0968L488.736 85.0089L488.055 88.5183L492.18 88.4777L493.435 86.5724ZM497.283 113.507L489.692 115.744H484.355L485.886 120.389L493.987 118.508H503.301L507.192 115.295L508.595 114.148L504.661 110.41H494.966L497.283 113.507ZM501.918 150.652H493.69V152.717L496.773 154.838L501.918 155.639V150.652ZM480.337 139.013V147.499H484.27V140.16L480.337 139.013ZM476.892 121.032L476.148 124.678L480.911 126.859H486.439L503.449 143.911L504.321 151.167L507.447 149.332L508.425 144.116L512.295 143.336L491.542 125.294L497.432 124.939L493.987 118.499L481.613 121.372L476.892 121.032ZM482.314 133.167V136.666L484.27 137.407L485.142 133.167H482.314ZM443.063 111.721V114.244L450.122 118.076L451.058 130.642L461.519 137.364L464.751 133.167L480.06 133.278L480.507 126.859H480.911L476.148 124.678L479.316 109.188L465.389 101.89L449.059 111.721H443.063ZM469.28 99.5549L465.389 101.89L473.192 105.978L475.425 104.769L475.51 102.876L469.28 99.5549ZM475.51 102.876L475.893 95.5777L469.28 99.5549L475.51 102.876ZM473.192 105.978L475.297 107.08L475.404 104.769L473.192 105.978ZM447.635 88.0996L447.72 93.3734L444.126 95.3513L447.294 99.9842L440.873 106.102L449.357 104.553L457.99 103.178L458.542 99.9949H460.307L460.69 96.4428L455.098 95.2573L448.102 79.1093L442.765 78.9448V87.6404L447.635 88.0996ZM440.873 91.9102V88.4649L434.622 88.0398L438.215 92.8565L440.873 91.9102ZM428.286 92.7069V102.112L431.879 102.088V98.8778L438.726 99.824L438.215 92.8565L434.622 88.0398L428.286 92.7069ZM431.73 155.334L446.72 156.46L461.519 137.373L451.058 130.651L426.861 130.826L426.755 135.467L433.941 136.674L431.73 155.334ZM464.943 147.303V143.264L460.307 147.303H464.943ZM519.715 142.606L529.22 139.517L527.03 134.386L519.205 135.924L519.715 142.606ZM513.698 120.904L515.442 130.644L519.205 135.918L527.03 134.38L525.031 129.67L519.205 119.951L513.698 120.904ZM497.432 124.941L498.304 124.89L502.769 122.542L504.789 119.061L503.301 118.501H493.987L497.432 124.941ZM544.89 143.832L537.81 143.774L543.636 155.535L570.406 157.019L596.708 151.63V147.501L593.773 141.166L584.694 138.844L548.037 140.049L544.89 143.832ZM537.789 141.166H544.316L541.68 135.463L537.725 136.747L537.789 141.166ZM508.552 133.541L510.913 134.128L515.442 130.644L514.166 123.48L504.491 124.796L508.552 133.541ZM516.186 143.744L519.205 147.247L525.031 148.883L521.48 150.396L526.179 156.329L529.135 151.63L525.839 144.404L532.388 141.166H537.789L537.725 136.747L516.186 143.744ZM510.998 121.38L504.789 119.067L502.769 122.549L498.304 124.896L499.856 124.802L507.064 133.175L508.552 133.547L504.491 124.802L514.166 123.486L513.698 120.91L510.998 121.38ZM513.741 134.837L517.143 133.019L515.442 130.651L510.913 134.134L513.741 134.837ZM513.741 134.837L515.654 143.127L516.186 143.751L519.715 142.606L519.205 135.924L517.143 133.019L513.741 134.837ZM529.22 139.517L541.68 135.469L543.721 129.16L539.575 128.013L525.031 129.677L529.22 139.517ZM622.202 199.624L625.094 201.546L626.986 199.581L623.669 194.882L622.202 199.624ZM564.516 160.044L556.883 162.883L562.347 164.258L564.516 160.044ZM569.428 169.854V183.638L572.298 183.982L576.572 181.974L577.89 174.233L581.228 172.815L581.399 172.742L580.42 168.631L573.553 172.742L569.428 169.854ZM621.266 199.011L613.718 186.622H610.422L608.062 183.548L601.619 183.527L581.228 172.819L577.869 174.238L576.572 181.978L572.277 183.986L569.428 183.642L596.027 230.079L596.559 231.809L599.323 227.045L608.764 228.242L607.892 231.851L621.266 224.803L640.084 219.74V209.894L630.282 208.505L627.305 203.016L621.266 199.011ZM605.085 183.538L608.083 183.548L610.422 186.622H613.718L609.721 180.086H605.957L605.085 183.538ZM585.991 165.294L580.42 168.635L581.441 172.93L601.619 183.527L605.085 183.538L605.957 180.086L613.378 180.041L596.708 151.654L589.053 153.224L585.991 165.294ZM634.449 204.425L627.305 203.016L630.282 208.505L635.81 209.295L643.677 201.264L640.084 198.06L634.449 204.425ZM635.81 209.295L640.084 209.894V219.74L630.622 222.282V228.007L635.895 231.595L653.33 209.894L643.677 201.264L635.81 209.295V209.295ZM572.532 164.077L569.428 169.846L573.553 172.734L585.991 165.281L589.053 153.207L570.406 157.026L569.151 162.9L572.532 164.077ZM621.266 224.803L607.892 231.851L608.764 228.242L599.323 227.045L596.559 231.809L601.279 247.273L635.895 231.595L630.622 228.007V222.282L621.266 224.803ZM569.428 169.844L572.532 164.074L569.151 162.898L567.918 168.767L569.428 169.844ZM569.343 183.83L569.428 183.627V169.844L567.918 168.767L565.537 177.6L569.343 183.83ZM597.792 380.64L601.407 389.227L610.061 389.611L624.796 342.128H619.544L602.427 359.985L600.705 372.374L597.792 380.64ZM502.663 264.015L500.154 256.561H505.172L498.984 243.36V250.665L490.096 269.163L482.335 269.611L481.251 277.215H484.611L484.44 284.99H505.852L506.809 282.235H506.766L500.366 273.178L502.663 264.015ZM490.33 290.651H484.313L484.122 299.9L491.84 310.259V301.395H501.748L496.688 284.99H490.33V290.651ZM490.33 290.651V284.99H484.462L484.313 290.651H490.33ZM470.237 271.128L471.598 277.215H481.251L482.335 269.611L490.096 269.163L498.984 250.665V243.36H465.708L460.307 269.675L470.237 271.128ZM421.141 266.087L423.586 268.842V280.313L441.702 275.058V258.227L424.012 254.724V263.567L421.141 266.087ZM423.586 280.313V268.842L417.038 261.431L411.233 266.92L423.586 280.313ZM532.643 333.84L526.392 330.743V319.294H519.333L517.908 324.335L510.87 324.57L509.041 318.226L497.857 318.312V343.367L491.478 353.919L492.031 360.797H531.474L525.031 352.765V343.816H532.898L532.643 333.84ZM453.992 271.491L451.058 253.463H441.702V275.058L453.992 271.491ZM496.688 284.99L501.748 301.395H491.84V310.259L495.731 315.471L505.172 311.135L515.101 294.581L516.675 282.235H506.809L505.852 284.99H496.688ZM588.968 239.515L594.815 248.807L597.048 246.927L582.228 221.359L574.573 239.515H588.968ZM411.254 266.92L417.038 261.431L411.105 254.724L405.343 260.533L411.254 266.92ZM596.368 254.873L600.089 252.182L597.048 246.927L592.604 250.665L596.368 254.873ZM568.854 338.305V343.816L573.659 347.041V353.919L569.087 357.934V349.882L564.516 346.122L564.388 346.208L555.756 352.253L564.388 357.934V365.88L558.988 378.568V392.623L562.9 392.559L563.155 390.658L571.256 384.976L570.661 367.867L589.67 352.21L587.777 334.353L568.854 338.305ZM600.089 252.182L596.368 254.873L600.152 259.145L615.228 264.506L591.69 284.2V301.331L628.581 258.227L627.071 250.665L601.428 254.489L600.089 252.182ZM506.086 400.59H520.247V364.214H539.043L536.598 360.797H492.031L506.086 400.59ZM576.21 276.083L569.747 277.002L571.596 284.99L570.682 291.762L567.79 296.888L585.481 308.614L591.69 301.331V284.2L598.536 278.454H578.464L576.21 276.083ZM567.79 296.888L566.685 298.832H560.327L561.964 296.012H559.073L552.566 312.203L564.388 328.928H568.854V338.305L587.777 334.353L585.481 308.614L567.79 296.888ZM422.97 195.429H412.466V207.54L408.596 213.435H395.626L395.158 227.041L411.105 238.554V234.432H430.284L428.456 201.58H438.555L422.97 190.025V195.429ZM556.436 302.591L559.073 296.012H553.459L551.673 303.595L556.436 302.591ZM552.566 312.203L556.436 302.591L551.673 303.595L550.376 309.084L552.566 312.203ZM399.198 253.869L405.343 260.533L411.105 254.724L417.038 261.431L421.141 266.087L424.012 263.567V254.724L422.63 248.422H404.365L399.198 253.869ZM430.284 234.432H411.105V238.554L415.443 248.422H422.63L424.012 254.724L432.857 256.475V247.568L466.814 233.748V222.492L438.555 201.58H428.456L430.284 234.432ZM548.314 336.254L555.16 339.01L552.779 343.816L532.643 333.84L532.898 343.816H525.031V352.765L531.474 360.797H543.53L564.388 346.208V328.928L561.773 325.232L550.376 326.963L548.314 336.254ZM520.247 387.625L525.945 394.225L549.207 378.568L539.043 364.214H520.247V387.625ZM432.857 256.475L441.702 258.227V253.463H451.058L461.923 249.448L451.547 239.964L432.857 247.568V256.475ZM564.388 328.928V346.208L564.516 346.122L569.087 349.882V357.934L573.659 353.919V347.041L568.854 343.816V328.928H564.388ZM594.815 248.807L588.968 239.515H574.573L564.388 263.673L578.464 278.454H598.536L615.228 264.506L600.152 259.145L592.604 250.665L594.815 248.807ZM553.459 296.012H561.964L564.388 291.762H570.682L571.596 284.99L569.747 277.002L557.563 278.711L553.459 296.012ZM466.814 222.492V233.748L451.547 239.964L461.944 249.448L464.666 248.444L465.708 243.36H498.984L506.49 227.896L503.534 207.54H488.736L466.814 222.492ZM395.647 213.435H408.596L412.487 207.54V195.429H422.991V188.083H411.424L395.817 208.501L395.647 213.435ZM394.69 240.284L405.173 243.36H394.584L394.393 248.422H415.443L411.105 238.554L395.158 227.041L394.69 240.284ZM405.173 243.36L394.69 240.284L394.584 243.36H405.173ZM506.469 227.896L498.984 243.36L505.172 256.561H500.154L502.663 264.015L527.498 252.224V239.387L533.026 233.919L533.579 221.445L512.018 207.54H503.534L506.469 227.896ZM506.532 177.315L502.003 171.8L492.286 169.457L483.25 179.221L489.118 207.544H512.018L533.579 221.449L535.684 173.518L523.139 171.809L517.951 179.607L506.532 177.315ZM421.163 188.077H422.991V186.515L449.017 172.245V162.005L429.838 164.013L411.424 188.085L421.163 188.077ZM449.017 162.018V172.257L422.991 186.528V190.031L466.814 222.498L488.736 207.546H489.118L478.423 155.919L465.836 155.554L449.017 162.018ZM478.423 155.911L483.25 179.236L492.286 169.472L488.736 168.618L489.182 156.229L478.423 155.911ZM536.598 360.794L549.207 378.566H558.988L564.388 365.878V357.932L555.756 352.251L543.53 360.794H536.598ZM542.381 409.196H547.399L550.376 406.077V402.083H546.273L542.381 404.604V409.196ZM558.988 391.318H555.16V394.842L558.988 397.149V391.318ZM569.279 183.999L569.343 183.82L565.537 177.589L535.684 173.513L534.089 209.868H566.812L573.404 206.087L559.838 182.677L567.259 188.754L569.279 183.999ZM573.404 206.106L566.812 209.887H534.068L533.026 233.917L527.498 239.385V252.222L547.08 274.864L557.563 278.709L576.189 276.081L564.388 263.671L574.573 239.513L582.228 221.357L573.404 206.106ZM550.376 309.082L557.563 278.709L547.08 274.864L517.504 275.697L515.101 294.579L505.172 311.133L495.731 315.469L497.857 318.31L509.041 318.224L510.87 324.568L517.908 324.333L519.333 319.292H526.392V330.741L552.779 343.813L555.16 339.007L548.314 336.252L550.376 326.96L561.773 325.23L550.376 309.082ZM500.366 273.176L506.766 282.233H516.675L517.504 275.697L547.08 274.864L527.498 252.222L502.663 264.013L500.366 273.176ZM464.666 248.442L455.396 251.859L458.436 270.207L460.307 269.673L464.666 248.442ZM455.396 251.859L451.058 253.461L453.992 271.489L458.436 270.207L455.396 251.859ZM399.198 253.867L404.365 248.42H394.414L394.393 248.655L399.198 253.867ZM109.387 39.6277L101.626 36.4152L60.9928 36.6459L44.5567 43.2973V50.6366L26.0666 50.408L22.5582 55.3272L38.163 54.7633L18.0739 62.3332L8.36746 75.5443L16.7046 75.4055L0.721375 85.9551L6.56438 86.4143L37.1615 71.738L72.4789 70.4991L83.2081 81.2794L87.2608 76.8964L83.7205 73.2246H79.7274L75.8278 68.7348L109.402 39.6213L109.387 39.6277ZM82.8296 107.894L77.2354 103.306L74.8369 105.371L78.7365 110.493H82.8296V107.894ZM297.158 114.996L292.969 108.293L289.185 107.385V102.577L277.001 114.996H297.158ZM290.779 37.417L266.242 27.3501L262.585 27.3116L254.059 34.3476L256.908 27.2689L252.783 27.2369L242.853 37.842L266.986 36.5241L281.721 49.7694L271.813 49.5985L266.816 53.7103H255.568V56.9399H266.986L276.661 64.9776L279.297 63.8199L277.001 58.7149L283.656 61.8975L285.825 60.9513V50.9741L293.48 53.7103L297.881 50.7605L295.393 46.0933L290.971 44.4743L290.779 37.417ZM208.152 127.406H215.233L220.144 124.027H236.006L242.853 118.063H249.019L246.787 125.121L257.737 123.224L250.55 126.663L251.231 129.647L270.75 122.758L261.224 122.303L256.78 118.281L261.182 111.425L259.034 109.366L245.235 115.656V112.044L258.439 105.679L279.595 104.762L295.5 96.2591L295.585 92.378L283.996 90.3616L282.593 71.33L267.433 77.3236L267.539 68.3695L260.225 62.1196H250.295L223.44 101.379L216.934 101.4L217.061 88.4884L193.927 75.8754L217.061 58.6743L230.18 56.2692L227.438 52.1937L247.637 49.9573L255.866 41.3579L248.147 40.4992L237.537 47.5501L238.728 41.5309L233.774 41.014L232.604 33.7409L224.014 37.5729L226.247 42.2187L214.765 47.721L194.735 43.9381L184.147 48.9257L158.44 38.6067L109.302 39.6384L75.7279 68.7519L79.6274 73.2417H83.6206L87.1608 76.9135L83.1082 81.2965L78.9981 100.191L86.3614 106.901V110.513H168.903L178.599 114.958L195.014 111.457L197.076 118.768L200.393 121.229L205.964 120.834L208.152 127.406ZM237.771 53.7145L231.478 58.8559L243.916 60.178L245.235 56.9441L237.771 53.7145ZM213.489 40.6359L215.807 43.6412L221.675 40.6359L219.932 37.8463L213.489 40.6359ZM217.933 30.5412L221.675 34.3518L229.713 31.6562L231.818 26.0129L217.933 30.5412ZM233.264 28.2728L234.284 31.8848L245.235 28.9606L243.023 26.0129L233.264 28.2728ZM261.182 20.7905L255.185 18.2956L249.359 23.2831L272.982 25.1521L279.149 20.7905H261.182ZM318.697 7.45977L331.03 0.468689L282.062 4.11695V6.77198L298.583 6.42809L296.265 9.52527L279.149 9.86702L281.381 13.825L274.003 12.6203L276.916 16.4031H264.243L266.136 18.2956H279.999L282.232 20.1881L302.431 10.7278L318.697 7.45977ZM258.779 10.3305L267.901 12.0628L273.131 8.69864L269.346 5.85992L258.779 10.3305ZM162.437 34.3604L183.87 27.0361L178.937 24.7399L158.674 29.9239L162.437 34.3604ZM186.634 28.3732L175.087 32.3184L181.893 35.1977L171.276 37.9146L184.466 43.0752L193.545 39.1172L203.645 41.5266L211.214 39.7815L203.815 36.349L209.513 28.9585H203.815L200.391 33.4056L199.009 28.9585L192.971 31.3123L186.634 28.3732ZM169.907 209.569H180.426L188.909 215.251L185.678 218.86H200.391L182.807 206.13H173.502L169.907 209.569ZM184.636 225.396L186.847 227.298H193.183V225.055L190.972 222.812H184.636V225.396ZM223.653 223.645L222.356 225.802H225.907L227.204 223.645H223.653ZM145.427 232.872H139.435L136.59 237.956L145.074 242.249L150.822 231.826L149.707 226.272H144.572L145.427 232.872ZM152.106 241.31L151.075 244.962L152.618 245.667L166.79 233.748L149.712 233.919L146.894 238.981L152.106 241.31ZM151.075 244.962L152.106 241.31L146.894 238.981L145.074 242.249L151.075 244.962ZM156.386 221.274L149.707 226.272L150.822 231.826L156.386 221.274ZM158.01 252.972L167.249 253.955L166.79 233.748L152.618 245.667L158.01 252.972ZM172.894 309.234L180.453 312.865L193.934 296.247L180.198 288.365L173.681 296.61L172.894 309.234ZM200.664 250.409L197.006 250.388L189.373 260.747L185.482 261.003L186.588 264.763L184.546 267.668L186.12 272.922L184.631 282.726L180.187 288.365L211.571 306.372V286.165L218.864 285.674V269.633L206.894 268.394L201.684 262.605L200.664 250.409ZM250.503 495.62L255.181 499.935L269.597 500.469L254.033 492.309L250.503 495.62ZM272.659 391.491L266.365 395.335H257.903V387.774L240.616 376.026L239.638 377.82H225.222L221.352 413.919L229.496 449.696L236.853 462.854L237.193 472.722L248.122 489.532L252.098 489.938L250.036 446.941L273.212 436.859L262.708 422.163V405.994L272.936 395.442L272.659 391.491ZM275.211 426.777L280.229 418.041L262.708 405.994V422.163L275.211 426.777ZM226.413 256.133L218.652 250.58L200.664 250.409L201.684 262.605L206.894 268.394L218.864 269.633V285.674L220.778 285.546L223.202 290.993L230.984 288.472L230.346 280.014L240.765 276.169L243.848 260.875L240.34 257.5L226.413 256.133ZM157.989 252.972L164.141 261.324L166.36 262.114L169.477 258.056L167.294 256.838L167.228 253.955L157.989 252.972ZM254.692 271.256L243.827 260.875L240.744 276.169L245.273 274.503L244.656 287.554L255.054 286.379L251.503 277.237L254.692 271.256ZM227.816 334.246L217.206 337.258V361.63L225.201 377.82H239.617L245.23 367.482L256.096 367.418L255.84 359.259L237.342 344.072L227.816 334.246ZM264.388 285.354L271.362 284.563L273.425 278.689L270.682 272.644L264.856 272.153L264.388 285.354ZM256.096 367.418L245.23 367.482L240.595 376.026L257.882 387.774V395.335H266.344L272.638 391.491L272.213 385.51L256.393 377.03L256.096 367.418ZM255.054 286.379L264.388 285.354L264.856 272.153L254.692 271.256L251.503 277.237L255.054 286.379ZM298.749 299.472L290.839 296.034L282.929 300.69L285.502 293.727L280.25 291.441L272.787 297.208L278.209 289.177L273.425 278.689L271.362 284.563L244.656 287.554L245.273 274.503L240.744 276.169L230.325 280.014L230.963 288.472L223.181 290.993L220.757 285.546L211.55 286.165V310.024L202.194 311.178L198.069 324.698L213.719 338.241L227.816 334.246L237.342 344.072L255.84 359.259L256.393 377.03L272.213 385.51L272.914 395.442L262.687 405.994L280.207 418.041L290.414 400.163L292.816 384.677L317.609 373.655L322.223 339.223L332.918 325.168V316.667L315.419 305.218L298.302 304.172L298.749 299.472ZM176.233 257.757L173.328 260.192L169.475 258.056L166.358 262.114L175.529 265.403L177.751 262.071L183.003 262.584L184.534 267.668L186.575 264.763L185.618 261.238L184.47 257.03L176.233 257.757ZM202.194 311.178L211.55 310.024V306.372L193.902 296.247L180.421 312.865L172.862 309.234L172.62 313.121L195.584 352.402L215.422 365.752L217.208 361.63V337.258L213.721 338.241L198.072 324.698L202.194 311.178ZM229.475 449.696L221.331 413.919L225.201 377.82L217.206 361.63L215.42 365.752L218.758 447.454L227.54 454.588L227.944 469.241L243.168 489.02L248.101 489.532L237.172 472.722L236.831 462.854L229.475 449.696ZM218.843 220.719L208.488 219.565V225.311L211.954 222.727H217.482L218.843 220.719ZM208.488 223.901V219.565H202.024L204.129 222.556H200.366V223.901H208.488Z" fill="#D6D2DB" stroke="white" stroke-width="0.25" stroke-linejoin="bevel"/>
<path id="Vector_2" d="M987.326 445.029L985.199 451.864L1000.72 440.757L996.256 434.777V427.941L993.705 429.009V438.621L987.326 445.029ZM946.501 467.457L978.821 451.01V455.282L953.943 471.729L946.501 467.457ZM814.034 383.086L841.251 370.27L861.45 347.842L872.507 352.755L877.397 342.502L895.896 342.075L891.218 350.619L906.527 363.862L916.733 353.609V339.298L921.411 340.793L926.727 366.425L943.312 389.921L941.611 407.65L911.418 439.048L885.265 437.553L882.075 419.825L873.145 423.669L864.64 416.193L812.971 427.514L809.782 423.669L814.034 413.417V383.086Z" fill="#D6D2DB" stroke="white" stroke-width="0.25" stroke-linejoin="bevel"/>
</g>
<g id="cities">
        <a xlink:href="#oslo" xlink:title="Oslo">
            <circle id="c_oslo" cx="485.817" cy="75.1973" r="5.7572" fill="#BF0978" />
        </a>
        <a xlink:href="#newyork" xlink:title="New York">
            <circle id="c_nyc" cx="217.399" cy="145.239" r="5.7572" fill="#BF0978" />
        </a>
        <a xlink:href="#boston" xlink:title="Boston">
            <circle id="c_boston" cx="225.389" cy="135.33" r="5.7572" fill="#BF0978" />
        </a>
        <a xlink:href="#medellin" xlink:title="Medellin">
            <circle id="c_medellin" cx="190.887" cy="269.395" r="5.7572" fill="#BF0978" />
        </a>
        <a xlink:href="#curitiba" xlink:title="Curitiba">
            <circle id="c_curitiba" cx="288.443" cy="385.778" r="5.7572" fill="#BF0978" />
        </a>
        <a xlink:href="#portland" xlink:title="Portland">
            <circle id="c_portland" cx="79.4852" cy="116.272" r="5.7572" fill="#BF0978" />
        </a>
        <a xlink:href="#stockholm" xlink:title="Stockholm">
            <circle id="c_stockholm" cx="507.907" cy="73.5113" r="5.7572" fill="#BF0978" />
        </a>
        <a xlink:href="#kajaani" xlink:title="Kajaani">
            <circle id="c_kajaani" cx="528.72" cy="56.4346" r="5.7572" fill="#BF0978" />
        </a>
        <a xlink:href="#tallinn" xlink:title="Tallinn">
            <circle id="c_tallinn" cx="526.147" cy="75.1973" r="5.7572" fill="#BF0978" />
        </a>
        <a xlink:href="#nuremburg" xlink:title="Nuremburg">
            <circle id="c_nuremburg" cx="476.485" cy="115.096" r="5.7572" fill="#BF0978" />
        </a>
        <a xlink:href="#strasbourg" xlink:title="Strasbourg">
            <circle id="c_strasbourg" cx="481.058" cy="102.111" r="5.7572" fill="#BF0978" />
        </a>
        <a xlink:href="#ghent" xlink:title="Ghent">
            <circle id="c_ghent" cx="468.658" cy="103.582" r="5.7572" fill="#BF0978" />
        </a>
        <a xlink:href="#london" xlink:title="London">
            <circle id="c_london" cx="455.901" cy="101.226" r="5.7572" fill="#BF0978" />
        </a>
        <a xlink:href="#birmingham" xlink:title="Birmingham">
            <circle id="c_birmingham" cx="447.838" cy="91.741" r="5.7572" fill="#BF0978" />
        </a>
        <a xlink:href="#bristol" xlink:title="Bristol">
            <circle id="c_bristol" cx="443.677" cy="103.582" r="5.7572" fill="#BF0978" />
        </a>
        <a xlink:href="#freiburg" xlink:title="Freiburg">
            <circle id="c_freiburg" cx="488.885" cy="111.775" r="5.7572" fill="#BF0978" />
        </a>
        <a xlink:href="#berlin" xlink:title="Berlin">
            <circle id="c_berlin" cx="492.573" cy="97.8245" r="5.7572" fill="#BF0978" />
        </a>
        <a xlink:href="#paris" xlink:title="Paris">
            <circle id="c_paris" cx="461.659" cy="114.21" r="5.7572" fill="#BF0978" />
        </a>
        <a xlink:href="#newdelhi" xlink:title="New Delhi">
            <circle id="c_newdelhi" cx="707.869" cy="187.656" r="5.7572" fill="#BF0978" />
        </a>
        <a xlink:href="#jakarta" xlink:title="Jakarta">
            <circle id="c_jakarta" cx="821.156" cy="316.181" r="5.7572" fill="#BF0978" />
        </a>
        <a xlink:href="#milan" xlink:title="Milan">
            <circle id="c_milan" cx="483.128" cy="125.725" r="5.7572" fill="#BF0978" />
        </a>
        <a xlink:href="#madrid" xlink:title="Madrid">
            <circle id="c_madrid" cx="442.966" cy="143.661" r="5.7572" fill="#BF0978" />
        </a>
        <a xlink:href="#pontevedra" xlink:title="Pontevedra">
            <circle id="c_pontevedra" cx="427.161" cy="133.369" r="5.7572" fill="#BF0978" />
        </a>
        <a xlink:href="#kigali" xlink:title="Kigali">
            <circle id="c_kigali" cx="554" cy="302" r="5.7572" fill="#BF0978" />
        </a>
</g>
</svg>
